<mxfile host="app.diagrams.net" modified="2024-02-15T03:39:06.921Z" agent="Mozilla/5.0 (X11; Ubuntu; Linux x86_64; rv:122.0) Gecko/20100101 Firefox/122.0" etag="hTvRnHBbenk4HSDJIZsE" version="23.1.4" type="device">
  <diagram name="Page-1" id="Ym2vFVDvsb0XC0OujdNG">
    <mxGraphModel dx="1050" dy="1378" grid="1" gridSize="11" guides="1" tooltips="1" connect="1" arrows="1" fold="1" page="1" pageScale="1" pageWidth="1100" pageHeight="850" math="0" shadow="0">
      <root>
        <mxCell id="0" />
        <mxCell id="1" parent="0" />
        <mxCell id="d7qpbwuBV5B9qoC2wB_s-1" value="" style="shape=internalStorage;whiteSpace=wrap;html=1;backgroundOutline=1;" vertex="1" parent="1">
          <mxGeometry x="110" y="550" width="410" height="220" as="geometry" />
        </mxCell>
        <mxCell id="d7qpbwuBV5B9qoC2wB_s-2" value="&lt;p style=&quot;line-height: 130%;&quot;&gt;&lt;font style=&quot;font-size: 18px;&quot;&gt;&lt;br&gt;├── &lt;font color=&quot;#f66151&quot;&gt;GH017455.MP4 [Video 7455, chapter 01]&lt;/font&gt;&lt;/font&gt;&lt;/p&gt;&lt;p style=&quot;line-height: 130%;&quot;&gt;&lt;font style=&quot;font-size: 18px;&quot;&gt;├── &lt;font color=&quot;#26a269&quot;&gt;GH017456.MP4 [Video 7456, chapter 01]&lt;br&gt;&lt;/font&gt;&lt;/font&gt;&lt;/p&gt;&lt;p style=&quot;line-height: 130%;&quot;&gt;&lt;font style=&quot;font-size: 18px;&quot;&gt;├── &lt;font color=&quot;#1c71d8&quot;&gt;GH017457.MP4 [Video 7457, chapter 01]&lt;br&gt;&lt;/font&gt;&lt;/font&gt;&lt;/p&gt;&lt;p style=&quot;line-height: 130%;&quot;&gt;&lt;font style=&quot;font-size: 18px;&quot;&gt;├── &lt;font color=&quot;#f66151&quot;&gt;GH027455.MP4 [Video 7455, chapter 02]&lt;br&gt;&lt;/font&gt;&lt;/font&gt;&lt;/p&gt;&lt;p style=&quot;line-height: 130%;&quot;&gt;&lt;font style=&quot;font-size: 18px;&quot;&gt;├── &lt;font color=&quot;#26a269&quot;&gt;GH027456.MP4 [Video 7456, chapter 02]&lt;br&gt;&lt;/font&gt;&lt;/font&gt;&lt;/p&gt;&lt;p style=&quot;line-height: 130%;&quot;&gt;&lt;font style=&quot;font-size: 18px;&quot;&gt;└── &lt;font color=&quot;#1a5fb4&quot;&gt;GH037457.MP4 [Video 7457, chapter 02]&lt;/font&gt;&lt;/font&gt;&lt;/p&gt;" style="text;html=1;align=center;verticalAlign=middle;whiteSpace=wrap;rounded=0;" vertex="1" parent="1">
          <mxGeometry x="116" y="572" width="401" height="178" as="geometry" />
        </mxCell>
        <mxCell id="d7qpbwuBV5B9qoC2wB_s-3" value="&lt;h1&gt;/home/alichtman/gopro-output/&lt;/h1&gt;&lt;p&gt;&lt;br&gt;&lt;/p&gt;" style="text;html=1;spacing=5;spacingTop=-20;whiteSpace=wrap;overflow=hidden;rounded=0;" vertex="1" parent="1">
          <mxGeometry x="100" y="500" width="510" height="50" as="geometry" />
        </mxCell>
        <mxCell id="d7qpbwuBV5B9qoC2wB_s-5" value="" style="endArrow=classic;html=1;rounded=0;exitX=1.007;exitY=0.147;exitDx=0;exitDy=0;exitPerimeter=0;fillColor=#f8cecc;strokeColor=#b85450;" edge="1" parent="1" source="d7qpbwuBV5B9qoC2wB_s-2">
          <mxGeometry width="50" height="50" relative="1" as="geometry">
            <mxPoint x="528" y="594" as="sourcePoint" />
            <mxPoint x="726" y="583" as="targetPoint" />
          </mxGeometry>
        </mxCell>
        <mxCell id="d7qpbwuBV5B9qoC2wB_s-6" value="" style="endArrow=classic;html=1;rounded=0;fillColor=#f8cecc;strokeColor=#b85450;" edge="1" parent="1">
          <mxGeometry width="50" height="50" relative="1" as="geometry">
            <mxPoint x="520" y="682" as="sourcePoint" />
            <mxPoint x="726" y="594" as="targetPoint" />
          </mxGeometry>
        </mxCell>
        <mxCell id="d7qpbwuBV5B9qoC2wB_s-7" value="" style="endArrow=classic;html=1;rounded=0;exitX=1.012;exitY=0.331;exitDx=0;exitDy=0;exitPerimeter=0;fillColor=#d5e8d4;strokeColor=#82b366;" edge="1" parent="1" source="d7qpbwuBV5B9qoC2wB_s-2">
          <mxGeometry width="50" height="50" relative="1" as="geometry">
            <mxPoint x="520" y="616" as="sourcePoint" />
            <mxPoint x="726" y="660" as="targetPoint" />
          </mxGeometry>
        </mxCell>
        <mxCell id="d7qpbwuBV5B9qoC2wB_s-8" value="" style="endArrow=classic;html=1;rounded=0;exitX=1.005;exitY=0.82;exitDx=0;exitDy=0;exitPerimeter=0;fillColor=#d5e8d4;strokeColor=#82b366;" edge="1" parent="1" source="d7qpbwuBV5B9qoC2wB_s-2">
          <mxGeometry width="50" height="50" relative="1" as="geometry">
            <mxPoint x="520" y="704" as="sourcePoint" />
            <mxPoint x="726" y="671" as="targetPoint" />
          </mxGeometry>
        </mxCell>
        <mxCell id="d7qpbwuBV5B9qoC2wB_s-10" value="" style="endArrow=classic;html=1;rounded=0;fillColor=#dae8fc;strokeColor=#6c8ebf;exitX=1;exitY=0.5;exitDx=0;exitDy=0;" edge="1" parent="1" source="d7qpbwuBV5B9qoC2wB_s-2">
          <mxGeometry width="50" height="50" relative="1" as="geometry">
            <mxPoint x="528" y="660" as="sourcePoint" />
            <mxPoint x="726" y="726" as="targetPoint" />
          </mxGeometry>
        </mxCell>
        <mxCell id="d7qpbwuBV5B9qoC2wB_s-11" value="" style="endArrow=classic;html=1;rounded=0;exitX=1;exitY=0.895;exitDx=0;exitDy=0;exitPerimeter=0;fillColor=#dae8fc;strokeColor=#6c8ebf;" edge="1" parent="1" source="d7qpbwuBV5B9qoC2wB_s-1">
          <mxGeometry width="50" height="50" relative="1" as="geometry">
            <mxPoint x="520" y="737" as="sourcePoint" />
            <mxPoint x="723" y="737" as="targetPoint" />
          </mxGeometry>
        </mxCell>
        <mxCell id="d7qpbwuBV5B9qoC2wB_s-14" value="" style="group;" vertex="1" connectable="0" parent="1">
          <mxGeometry x="736" y="558" width="120" height="60" as="geometry" />
        </mxCell>
        <mxCell id="d7qpbwuBV5B9qoC2wB_s-12" value="" style="rounded=1;whiteSpace=wrap;html=1;fillColor=#f8cecc;strokeColor=#b85450;" vertex="1" parent="d7qpbwuBV5B9qoC2wB_s-14">
          <mxGeometry width="120" height="60" as="geometry" />
        </mxCell>
        <mxCell id="d7qpbwuBV5B9qoC2wB_s-13" value="Video 7455" style="text;html=1;align=center;verticalAlign=middle;whiteSpace=wrap;rounded=0;" vertex="1" parent="d7qpbwuBV5B9qoC2wB_s-14">
          <mxGeometry x="20" y="15" width="80" height="30" as="geometry" />
        </mxCell>
        <mxCell id="d7qpbwuBV5B9qoC2wB_s-15" value="" style="group;" vertex="1" connectable="0" parent="1">
          <mxGeometry x="736" y="631" width="120" height="60" as="geometry" />
        </mxCell>
        <mxCell id="d7qpbwuBV5B9qoC2wB_s-16" value="" style="rounded=1;whiteSpace=wrap;html=1;fillColor=#d5e8d4;strokeColor=#82b366;" vertex="1" parent="d7qpbwuBV5B9qoC2wB_s-15">
          <mxGeometry width="120" height="60" as="geometry" />
        </mxCell>
        <mxCell id="d7qpbwuBV5B9qoC2wB_s-17" value="Video 7456" style="text;html=1;align=center;verticalAlign=middle;whiteSpace=wrap;rounded=0;" vertex="1" parent="d7qpbwuBV5B9qoC2wB_s-15">
          <mxGeometry x="20" y="15" width="80" height="30" as="geometry" />
        </mxCell>
        <mxCell id="d7qpbwuBV5B9qoC2wB_s-18" value="" style="group;" vertex="1" connectable="0" parent="1">
          <mxGeometry x="737" y="704" width="120" height="60" as="geometry" />
        </mxCell>
        <mxCell id="d7qpbwuBV5B9qoC2wB_s-19" value="" style="rounded=1;whiteSpace=wrap;html=1;fillColor=#dae8fc;strokeColor=#6c8ebf;" vertex="1" parent="d7qpbwuBV5B9qoC2wB_s-18">
          <mxGeometry width="120" height="60" as="geometry" />
        </mxCell>
        <mxCell id="d7qpbwuBV5B9qoC2wB_s-20" value="Video 7457" style="text;html=1;align=center;verticalAlign=middle;whiteSpace=wrap;rounded=0;" vertex="1" parent="d7qpbwuBV5B9qoC2wB_s-18">
          <mxGeometry x="20" y="15" width="80" height="30" as="geometry" />
        </mxCell>
      </root>
    </mxGraphModel>
  </diagram>
</mxfile>
